<?xml version="1.0" standalone="no"?><!DOCTYPE svg PUBLIC "-//W3C//DTD SVG 1.1//EN" "http://www.w3.org/Graphics/SVG/1.1/DTD/svg11.dtd"><svg t="1572506558459" class="icon" viewBox="0 0 1024 1024" version="1.1" xmlns="http://www.w3.org/2000/svg" p-id="568" width="28" height="28" xmlns:xlink="http://www.w3.org/1999/xlink"><defs><style type="text/css"></style></defs><path d="M892.544 454.528a21472.426667 21472.426667 0 0 1-171.648-99.114667l-0.128-0.085333L197.973333 53.461333a71.637333 71.637333 0 0 0-60.074666-6.826666 40.661333 40.661333 0 0 0-3.242667 1.28 60.501333 60.501333 0 0 0-7.381333 2.986666 64.810667 64.810667 0 0 0-31.488 58.197334v810.069333a61.226667 61.226667 0 0 0 29.525333 54.186667 55.808 55.808 0 0 0 6.613333 2.730666 41.685333 41.685333 0 0 0 3.712 1.493334 58.837333 58.837333 0 0 0 19.029334 3.541333 71.381333 71.381333 0 0 0 35.456-9.898667l530.688-306.432 171.562666-99.072a65.066667 65.066667 0 0 0 35.925334-56.917333 63.573333 63.573333 0 0 0-35.712-54.272zM181.077333 846.464V175.018667l338.773334 335.317333z m214.101334-92.245333l185.344-183.893334 49.066666 48.597334-234.410666 135.296z m185.258666-304L392.789333 264.533333l236.970667 136.832z m125.738667 124.458666l-65.109333-64.426666 65.194666-64.682667c30.72 17.877333 78.634667 45.653333 111.616 64.64z" p-id="569" data-spm-anchor-id="a313x.7781069.0.i2" class="selected" fill="#e6e6e6"></path></svg>